<?xml version="1.0" standalone="no"?>
<!DOCTYPE svg PUBLIC "-//W3C//DTD SVG 20010904//EN"
 "http://www.w3.org/TR/2001/REC-SVG-20010904/DTD/svg10.dtd">
<svg version="1.0" xmlns="http://www.w3.org/2000/svg"
 width="700.000000pt" height="700.000000pt" viewBox="0 0 700.000000 700.000000"
 preserveAspectRatio="xMidYMid meet">

<g transform="translate(0.000000,700.000000) scale(0.100000,-0.100000)"
fill="#000000" stroke="none">
<path d="M3848 5568 c-186 -17 -294 -141 -323 -371 l-7 -57 -118 0 c-307 0
-436 -83 -334 -217 28 -37 197 -126 321 -169 l83 -29 -1 -45 c-1 -25 -4 -57
-8 -73 l-6 -27 -61 29 c-116 55 -211 64 -289 27 -188 -87 -207 -388 -31 -491
25 -14 81 -34 125 -43 78 -16 81 -18 81 -45 0 -43 25 -92 59 -116 17 -12 31
-30 31 -39 0 -30 31 -63 75 -82 59 -25 82 -70 36 -70 -8 0 -25 12 -37 27 -20
25 -28 28 -86 28 -56 0 -67 4 -103 32 -49 39 -112 67 -185 82 -66 14 -68 15
-103 68 -15 23 -38 50 -52 59 -28 18 -94 21 -124 5 -29 -16 -45 -75 -38 -141
6 -53 4 -59 -22 -84 -53 -51 -106 -214 -99 -306 4 -51 1 -63 -13 -71 -14 -7
-21 -4 -33 12 -13 19 -21 21 -56 15 -97 -15 -458 -189 -655 -314 -187 -119
-389 -293 -428 -367 -47 -90 -15 -208 88 -324 32 -36 59 -80 73 -118 29 -78
96 -200 130 -236 14 -15 51 -40 82 -55 l55 -27 232 0 c160 0 236 4 243 11 9 9
8 19 -4 42 -20 40 -20 42 5 42 11 0 44 -20 72 -44 132 -112 291 -146 449 -97
61 20 164 84 197 124 9 12 29 17 63 17 58 0 88 -13 88 -40 0 -52 -20 -50 424
-49 226 1 425 4 441 8 25 5 31 12 35 41 l5 35 100 0 c100 0 101 0 150 -36 65
-47 157 -93 219 -108 27 -7 90 -12 140 -12 317 -1 576 259 576 576 0 99 -21
178 -75 285 -57 113 -64 160 -29 205 22 29 25 43 23 91 l-3 56 168 54 c196 61
207 69 266 190 l41 82 -47 114 c-68 164 -161 345 -184 358 -11 6 -64 12 -118
13 -94 2 -101 1 -143 -27 -145 -96 -516 -401 -595 -490 -36 -40 -46 -46 -82
-46 -39 0 -40 1 -47 42 -8 42 -43 88 -69 88 -12 0 -15 15 -14 73 0 39 -5 85
-11 100 -6 16 -11 29 -11 30 0 1 46 3 103 4 56 1 115 2 130 2 18 1 40 12 58
30 40 41 40 91 -1 138 -16 18 -30 40 -30 47 0 7 14 33 31 57 16 24 50 74 74
111 24 36 54 69 66 73 38 13 125 72 154 107 47 56 65 106 65 186 0 88 -14 125
-72 188 -42 46 -180 124 -218 124 -12 0 -26 23 -45 73 -70 182 -186 345 -340
479 -170 149 -319 203 -507 186z m-118 -164 c48 -41 73 -98 78 -184 4 -77 -7
-141 -32 -175 -14 -19 -14 -19 -56 0 l-42 19 37 32 38 32 -35 88 c-20 49 -39
99 -43 111 -6 22 -7 22 -31 6 -14 -8 -27 -14 -29 -11 -8 8 56 108 69 108 8 0
29 -12 46 -26z m-76 -213 c16 -71 20 -111 11 -111 -3 0 -23 8 -46 18 l-41 17
5 52 c12 113 48 125 71 24z m-82 -387 l-2 -39 24 29 23 28 94 -42 c131 -59
192 -69 281 -46 l70 18 36 -29 c19 -16 40 -36 46 -46 17 -26 -20 -65 -94 -97
-126 -56 -157 -105 -114 -185 15 -29 24 -63 24 -90 0 -64 41 -110 99 -110 55
0 86 25 149 120 100 152 160 196 246 180 92 -18 131 -77 131 -200 -1 -96 -22
-150 -87 -221 -53 -58 -107 -83 -175 -84 -50 0 -52 -1 -86 -49 -39 -53 -59
-61 -157 -61 -64 0 -188 -21 -295 -51 -38 -10 -97 -26 -131 -36 -71 -19 -87
-15 -114 29 -12 20 -34 37 -62 48 -56 20 -62 45 -12 54 22 5 48 20 65 39 26
28 35 31 89 32 73 1 108 24 131 84 9 26 28 50 46 62 66 42 88 169 39 226 l-24
27 -51 -56 c-28 -30 -75 -68 -105 -84 l-54 -28 -20 24 -19 24 -43 -37 c-112
-95 -293 -110 -407 -34 -66 45 -93 95 -93 177 0 79 24 137 71 173 77 58 177
53 313 -17 49 -25 92 -44 94 -41 2 2 10 48 18 102 33 235 37 254 48 250 6 -2
10 -21 8 -43z m1902 -941 c18 -38 61 -130 95 -206 57 -126 61 -141 51 -170
-13 -38 -60 -109 -76 -114 -6 -2 -19 15 -28 39 -41 103 -70 158 -82 158 -7 0
-41 -14 -75 -31 -34 -18 -81 -34 -105 -37 -40 -4 -44 -3 -54 24 -16 40 10 70
103 120 42 22 79 43 83 46 3 4 -12 46 -34 95 -23 48 -44 100 -47 116 l-7 27
71 0 71 0 34 -67z m-2411 2 c81 -21 170 -68 222 -118 46 -45 55 -47 55 -15 0
15 6 19 27 16 65 -7 120 -211 96 -355 -13 -75 -37 -114 -76 -124 -26 -7 -27
-5 -27 28 l0 35 -46 -47 c-25 -25 -60 -53 -78 -62 -45 -25 -139 -22 -198 5
-55 26 -74 27 -81 8 -7 -16 4 -26 51 -50 28 -15 32 -20 21 -33 -10 -11 -28
-14 -74 -11 -70 4 -115 30 -142 81 -21 41 -20 114 2 156 16 31 16 33 -2 29
-10 -2 -29 -20 -42 -41 -31 -47 -47 -35 -45 32 2 45 32 122 54 136 5 3 10 10
10 16 0 16 -26 10 -54 -12 -32 -25 -40 -20 -39 26 1 48 28 87 86 125 55 36 51
48 -9 31 -21 -6 -40 -9 -42 -7 -2 2 6 22 17 45 25 48 82 89 149 107 63 17 97
17 165 -1z m-403 -475 c0 -5 -4 -10 -10 -10 -5 0 -10 5 -10 10 0 6 5 10 10 10
6 0 10 -4 10 -10z m1888 -52 c-2 -16 -20 -32 -56 -51 -29 -16 -56 -27 -59 -24
-3 3 -2 24 2 46 7 42 15 47 83 50 29 1 33 -2 30 -21z m299 6 c8 -23 -14 -64
-35 -64 -23 0 -42 19 -42 42 0 33 65 52 77 22z m-2227 -19 c10 -13 8 -19 -15
-38 -47 -37 -68 -46 -107 -47 -49 0 -125 -26 -165 -56 -20 -15 -47 -54 -68
-98 -19 -40 -43 -81 -54 -90 -10 -9 -22 -38 -26 -63 -5 -35 -23 -69 -72 -137
-36 -50 -75 -108 -87 -128 l-21 -38 -138 0 c-118 0 -143 -3 -177 -20 -37 -19
-40 -19 -40 -3 1 61 98 184 242 307 116 99 173 140 296 215 96 58 395 211 412
211 4 0 13 -7 20 -15z m1030 -17 c0 -6 -11 -26 -25 -44 -43 -57 -135 -56 -135
1 0 28 26 45 69 45 33 0 39 -8 19 -28 -6 -6 -8 -15 -4 -19 4 -4 18 7 32 25 26
33 44 41 44 20z m944 -95 c9 -26 16 -50 16 -54 0 -3 -22 -16 -49 -28 -78 -33
-131 -27 -131 16 0 30 38 68 93 93 23 11 45 20 49 20 3 0 13 -21 22 -47z
m-1854 12 c27 -28 27 -28 -19 -44 -28 -9 -39 -8 -58 4 -31 20 -29 28 10 48 42
21 40 21 67 -8z m2420 -117 l-1 -43 -29 33 c-38 41 -38 52 0 52 29 0 30 -2 30
-42z m-98 -17 c29 -41 52 -91 41 -91 -3 0 -27 13 -52 29 -25 16 -65 37 -88 46
-24 10 -43 21 -43 25 0 5 24 13 53 18 28 5 54 10 57 11 3 0 17 -17 32 -38z
m-2707 -298 c45 -64 51 -93 20 -93 -17 0 -100 108 -121 157 -17 40 -18 75 -2
91 10 10 17 2 35 -39 12 -28 43 -80 68 -116z m2511 52 c118 -53 184 -151 192
-284 3 -61 0 -87 -18 -133 -55 -147 -209 -236 -362 -209 -105 18 -187 78 -239
173 -30 57 -33 71 -34 148 0 74 4 93 29 143 82 168 267 237 432 162z m-2640
-36 c4 -6 -7 -25 -25 -41 -17 -16 -31 -35 -31 -42 0 -7 13 -30 30 -52 37 -48
37 -54 3 -49 -16 2 -49 4 -75 4 l-47 1 13 32 c17 41 103 158 115 158 5 0 13
-5 17 -11z m1826 -116 c5 -63 21 -58 -182 -61 -208 -3 -182 5 -313 -99 -57
-45 -68 -48 -204 -45 l-73 2 0 44 c0 52 8 56 116 56 76 0 88 6 184 89 l35 30
218 1 c200 0 217 -1 219 -17z m-1217 -42 c117 -54 176 -183 141 -305 -57 -195
-301 -250 -438 -98 -113 125 -69 333 85 403 56 25 158 25 212 0z m-545 -102
c0 -5 -4 -9 -10 -9 -5 0 -10 7 -10 16 0 8 5 12 10 9 6 -3 10 -10 10 -16z
m-100 -19 c0 -26 -4 -30 -27 -30 -174 0 -435 -10 -460 -18 -28 -9 -33 -8 -33
6 0 9 12 29 27 44 l27 28 233 0 233 0 0 -30z m90 -103 c0 -47 24 -160 45 -209
5 -14 2 -18 -13 -18 -14 0 -24 10 -31 33 -25 80 -40 225 -24 240 16 17 23 3
23 -46z m920 -85 l0 -139 -31 -1 c-27 -1 -30 2 -26 21 3 12 13 49 21 82 9 33
16 86 16 118 0 31 5 57 10 57 6 0 10 -53 10 -138z m967 78 c6 -33 27 -93 47
-133 20 -39 36 -74 36 -77 0 -3 -13 -4 -30 -4 -16 1 -46 2 -65 3 -34 1 -35 2
-35 44 0 101 13 227 24 227 6 0 17 -27 23 -60z"/>
<path d="M3638 4762 c-45 -23 -74 -71 -87 -144 -28 -166 38 -286 142 -257 27
7 43 21 61 52 29 50 49 159 40 219 -7 45 -37 112 -54 123 -32 20 -70 22 -102
7z m106 -66 c25 -54 30 -126 12 -196 -18 -70 -47 -110 -81 -110 l-22 0 24 49
c18 36 24 65 24 114 0 87 -20 135 -61 143 -29 6 -30 8 -14 25 35 38 94 26 118
-25z m-67 -53 c30 -72 3 -212 -43 -230 -31 -11 -38 14 -13 48 14 20 24 51 27
85 4 48 2 56 -25 82 -35 35 -32 52 8 52 25 0 33 -6 46 -37z m-61 -86 c-3 -12
-5 -25 -5 -29 -1 -4 -8 -5 -16 -2 -15 6 -21 45 -9 57 13 12 33 -6 30 -26z"/>
<path d="M4374 4336 c-53 -56 -73 -128 -52 -190 18 -54 34 -56 36 -5 2 50 12
64 65 91 29 15 36 22 26 28 -7 5 -26 6 -41 3 -16 -3 -28 -1 -28 5 0 12 88 92
101 92 5 0 9 5 9 10 0 6 -17 10 -37 10 -30 0 -44 -8 -79 -44z"/>
<path d="M3075 3780 c-19 -31 25 -70 81 -70 22 0 24 3 19 23 -13 44 -82 77
-100 47z"/>
<path d="M3088 3659 c-10 -5 -18 -21 -18 -34 0 -29 26 -39 80 -30 50 8 54 37
10 60 -34 17 -48 18 -72 4z"/>
<path d="M3094 3507 c-34 -30 -27 -57 14 -57 34 0 77 31 85 60 4 17 0 20 -33
20 -26 0 -48 -8 -66 -23z"/>
<path d="M4702 2818 c-7 -7 -12 -42 -12 -86 l0 -73 43 3 42 3 0 73 c0 54 -4
75 -15 82 -21 13 -44 12 -58 -2z"/>
<path d="M4682 2597 c-40 -42 -25 -105 29 -122 54 -17 114 48 88 97 -28 52
-81 64 -117 25z"/>
<path d="M4468 2579 c-21 -12 -24 -49 -6 -67 7 -7 40 -12 80 -12 l68 0 0 45 0
45 -62 0 c-35 0 -71 -5 -80 -11z"/>
<path d="M4850 2545 l0 -45 64 0 c85 0 96 5 96 45 0 40 -11 45 -96 45 l-64 0
0 -45z"/>
<path d="M4690 2358 c0 -79 9 -98 46 -98 35 0 45 22 42 97 l-3 68 -42 3 -43 3
0 -73z"/>
<path d="M2711 2631 c-8 -5 -16 -32 -19 -65 l-4 -56 36 0 c30 0 37 4 42 25 9
36 -4 92 -22 99 -19 7 -16 8 -33 -3z"/>
<path d="M2687 2452 c-22 -24 -21 -55 1 -75 38 -35 102 -9 102 41 0 48 -70 71
-103 34z"/>
<path d="M2515 2431 c-12 -39 4 -51 66 -51 l59 0 0 35 0 35 -59 0 c-49 0 -61
-3 -66 -19z"/>
<path d="M2820 2415 l0 -36 63 3 c62 3 62 3 62 33 0 30 0 30 -62 33 l-63 3 0
-36z"/>
<path d="M2695 2309 c-4 -12 -4 -41 0 -65 6 -40 9 -44 34 -44 31 0 41 18 41
77 0 49 -62 75 -75 32z"/>
<path d="M2101 518 c31 -81 50 -88 64 -26 l7 33 16 -37 c22 -47 44 -38 62 27
7 25 16 45 19 45 4 0 13 -20 20 -45 12 -41 36 -74 46 -63 3 2 11 22 18 44 l14
39 7 -37 c10 -55 33 -56 56 -2 11 25 20 51 20 56 0 21 15 -3 31 -49 9 -28 22
-47 32 -49 9 -1 17 2 17 6 0 5 5 21 11 37 l11 28 12 -34 c17 -47 33 -50 50 -9
26 62 30 88 13 88 -10 0 -18 -13 -23 -35 -7 -40 -20 -38 -29 5 -10 44 -39 40
-51 -7 l-10 -38 -10 35 c-9 31 -15 35 -46 38 -34 3 -36 1 -43 -35 l-8 -38 -15
38 c-19 47 -42 46 -56 -3 l-10 -35 -10 38 c-9 36 -12 38 -45 35 -30 -3 -36 -7
-44 -38 l-10 -35 -12 35 c-16 46 -43 52 -51 11 -9 -44 -21 -47 -28 -6 -5 26
-12 35 -26 35 -19 0 -19 -1 1 -52z"/>
<path d="M2690 516 c0 -39 4 -55 15 -60 11 -4 15 1 15 19 0 20 5 25 25 25 14
0 25 5 25 10 0 6 -11 10 -25 10 -16 0 -25 6 -25 15 0 10 10 15 30 15 17 0 30
5 30 10 0 6 -20 10 -45 10 l-45 0 0 -54z"/>
<path d="M2798 563 c-4 -7 -4 -45 1 -98 2 -19 3 -18 23 5 l20 25 15 -22 c24
-36 31 -28 29 35 l-1 57 -42 3 c-22 2 -43 -1 -45 -5z m68 -24 c9 -15 -11 -33
-30 -26 -9 4 -13 13 -10 22 7 17 30 20 40 4z"/>
<path d="M2920 515 c0 -30 3 -55 8 -56 76 -8 82 -8 82 6 0 10 -10 15 -30 15
-16 0 -30 5 -30 10 0 6 11 10 25 10 16 0 25 6 25 15 0 9 -9 15 -25 15 -14 0
-25 5 -25 10 0 6 14 10 30 10 17 0 30 5 30 10 0 6 -20 10 -45 10 l-45 0 0 -55z"/>
<path d="M3032 513 l3 -58 45 1 c52 0 61 17 13 22 -39 4 -44 19 -8 24 14 2 26
8 26 13 0 6 -12 11 -26 13 -35 5 -31 22 5 22 17 0 30 5 30 10 0 6 -20 10 -45
10 l-46 0 3 -57z"/>
<path d="M3150 555 c-17 -20 -6 -43 25 -51 36 -9 32 -28 -5 -20 -22 4 -30 2
-30 -8 0 -17 37 -27 67 -20 41 11 39 58 -3 68 -13 4 -24 11 -24 17 0 7 10 9
25 5 18 -5 25 -2 25 9 0 20 -63 20 -80 0z"/>
<path d="M3260 520 c11 -28 20 -53 20 -56 0 -3 9 -4 21 -2 15 2 27 18 40 53
23 60 22 55 5 55 -8 0 -20 -16 -26 -35 -13 -40 -25 -38 -35 5 -5 21 -13 30
-26 30 -18 0 -18 -1 1 -50z"/>
<path d="M3386 555 c-43 -44 4 -119 62 -99 29 10 41 39 23 57 -9 9 -13 6 -18
-11 -9 -36 -48 -26 -48 13 0 27 3 30 30 30 43 0 47 19 4 23 -24 2 -42 -3 -53
-13z"/>
<path d="M3502 513 l3 -58 40 2 c45 3 65 22 65 65 0 33 -24 48 -75 48 l-36 0
3 -57z m73 2 c0 -23 -5 -31 -22 -33 -20 -3 -23 1 -23 33 0 32 3 36 23 33 17
-2 22 -10 22 -33z"/>
<path d="M3637 552 c-31 -35 -15 -82 33 -97 48 -15 93 48 65 91 -19 30 -74 33
-98 6z m68 -37 c0 -23 -5 -30 -19 -30 -28 0 -43 29 -26 50 21 25 45 14 45 -20z"/>
<path d="M3750 567 c0 -4 18 -59 35 -104 7 -21 33 -3 45 30 l12 32 12 -35 c18
-49 37 -44 58 15 22 61 22 65 3 65 -8 0 -17 -14 -21 -35 -7 -40 -20 -38 -29 5
-10 48 -41 40 -51 -12 l-7 -43 -12 40 c-7 23 -19 41 -28 43 -10 2 -17 1 -17
-1z"/>
<path d="M3950 510 c0 -33 4 -60 10 -60 10 0 14 13 11 43 -3 25 7 21 41 -15
29 -31 31 -32 38 -13 4 11 6 36 5 55 -3 48 -4 50 -15 50 -5 0 -10 -15 -10 -32
l-1 -33 -28 33 c-41 47 -51 42 -51 -28z"/>
<path d="M4080 509 l0 -61 31 6 c17 3 35 6 40 6 5 0 9 5 9 10 0 6 -11 10 -25
10 -23 0 -25 4 -25 45 0 33 -4 45 -15 45 -12 0 -15 -13 -15 -61z"/>
<path d="M4186 554 c-43 -43 4 -118 62 -98 39 14 54 50 36 86 -12 22 -21 28
-49 28 -18 0 -41 -7 -49 -16z m62 -13 c8 -4 12 -19 10 -32 -4 -30 -51 -35 -56
-6 -8 39 15 58 46 38z"/>
<path d="M4320 515 c-13 -31 -20 -58 -17 -61 3 -3 17 2 31 11 24 16 28 16 51
1 43 -28 45 -19 14 55 -29 67 -50 65 -79 -6z m50 0 c0 -8 -4 -15 -10 -15 -5 0
-10 7 -10 15 0 8 5 15 10 15 6 0 10 -7 10 -15z"/>
<path d="M4440 515 c0 -60 10 -72 54 -61 84 21 69 116 -17 116 l-37 0 0 -55z
m68 23 c17 -17 15 -45 -4 -52 -29 -11 -34 -6 -34 29 0 36 15 46 38 23z"/>
<path d="M4618 559 c-28 -16 -24 -75 7 -95 29 -19 75 -12 75 11 0 11 -9 14
-32 13 -31 -3 -33 -1 -33 27 0 28 2 30 33 27 24 -2 33 2 30 10 -6 17 -58 21
-80 7z"/>
<path d="M4727 552 c-33 -36 -15 -85 35 -97 21 -5 33 -1 53 19 26 27 27 53 3
84 -16 18 -72 15 -91 -6z m72 -21 c13 -24 -9 -57 -33 -48 -23 9 -31 34 -16 52
17 20 37 19 49 -4z"/>
<path d="M4854 518 c2 -58 26 -82 26 -26 l1 33 15 -27 c8 -16 21 -28 28 -28 8
0 17 12 22 28 l8 27 5 -33 c9 -51 26 -38 29 23 3 48 1 55 -16 55 -11 0 -24
-13 -34 -32 l-15 -33 -17 33 c-10 19 -24 32 -35 32 -17 0 -19 -7 -17 -52z"/>
<path d="M2650 470 c0 -5 5 -10 10 -10 6 0 10 5 10 10 0 6 -4 10 -10 10 -5 0
-10 -4 -10 -10z"/>
<path d="M4560 470 c0 -5 5 -10 10 -10 6 0 10 5 10 10 0 6 -4 10 -10 10 -5 0
-10 -4 -10 -10z"/>
</g>
</svg>
